<?xml version="1.0" encoding="UTF-8"?>
<svg id="Layer_1" data-name="Layer 1" xmlns="http://www.w3.org/2000/svg" viewBox="0 0 207.43 134.46">
  <defs>
    <style>
      .cls-1 {
        fill: #f58520;
      }

      .cls-2 {
        fill: #002c77;
      }

      .cls-3 {
        fill: #ffd007;
      }

      .cls-4 {
        fill: #f199c1;
      }

      .cls-5 {
        fill: #8b96be;
      }

      .cls-6 {
        fill: #d22228;
      }

      .cls-7 {
        fill: #04abe3;
      }

      .cls-8 {
        fill: #3fad49;
      }

      .cls-9 {
        fill: #1c447e;
      }

      .cls-10 {
        fill: #4c679e;
      }
    </style>
  </defs>
  <rect class="cls-7" x="74.08" y="112.24" width="12.98" height="12.98"/>
  <rect class="cls-3" x="101.93" y="112.24" width="12.98" height="12.98"/>
  <rect class="cls-6" x="129.79" y="112.24" width="12.98" height="12.98"/>
  <rect class="cls-8" x="18.36" y="112.24" width="12.98" height="12.98"/>
  <rect class="cls-1" x="46.22" y="112.24" width="12.98" height="12.98"/>
  <rect class="cls-4" x="157.65" y="112.24" width="12.98" height="12.98"/>
  <rect class="cls-9" x="185.5" y="112.24" width="12.97" height="12.98"/>
  <g>
    <path class="cls-2" d="m13.45,52.01h0c0-.81-.1-1.26-.32-1.53-.22-.26-.57-.34-1.08-.4-.66-.08-1.05-.1-1.27-.18s-.28-.2-.28-.46c0-.13.08-.24.24-.31s.37-.11.63-.11c.36,0,.87.04,1.48.08.61.04,1.33.08,2.11.08.93,0,1.55-.04,2-.08s.72-.08.95-.08c.28,0,.47.04.59.11.12.08.17.19.17.34,0,.28-.11.37-.36.41-.25.05-.64.06-1.19.19-.59.15-.88.26-1.02,1.13s-.15,2.48-.15,5.63v12.88c0,3.29-.8,5.93-2.03,7.75-1.22,1.82-2.87,2.82-4.55,2.82-.79,0-1.34-.25-1.69-.64-.35-.38-.5-.89-.5-1.4,0-.47.14-.87.4-1.15.26-.28.62-.44,1.08-.44.87,0,1.14.55,1.33,1.1.18.55.28,1.09.79,1.09.72,0,1.39-.6,1.88-1.7.49-1.09.8-2.67.8-4.61v-20.55Zm12.89,20.56h0c1.23,0,2.56-.75,3.57-2.57,1.02-1.82,1.73-4.71,1.73-8.99s-.71-7.17-1.73-8.98c-1.02-1.82-2.34-2.57-3.57-2.57s-2.56.75-3.57,2.57c-1.02,1.82-1.73,4.71-1.73,8.98s.71,7.17,1.73,8.99c1.02,1.82,2.34,2.57,3.57,2.57m0-24.01h0c2.18,0,4.26,1.34,5.8,3.56,1.54,2.22,2.53,5.34,2.53,8.9s-.99,6.68-2.53,8.9c-1.54,2.23-3.62,3.56-5.8,3.56s-4.26-1.33-5.8-3.56c-1.54-2.22-2.53-5.34-2.53-8.9s.99-6.67,2.53-8.9c1.54-2.23,3.62-3.56,5.8-3.56m21.36,3.07h0c0-.49-.04-.85-.16-1.1-.12-.25-.33-.39-.68-.45-.45-.08-.8-.12-1.04-.19s-.36-.18-.36-.38c0-.19.09-.31.24-.39.15-.08.37-.1.63-.1.38,0,.7.04,1.11.08.41.04.9.08,1.62.08.93,0,1.46-.04,1.84-.08.38-.04.62-.08.96-.08.23,0,.37.04.46.1.08.06.11.15.11.24,0,.23-.15.38-.41.49-.26.11-.62.18-1.03.23-.25.04-.44.13-.58.26-.14.13-.21.29-.21.46v19.58c0,.45.06.8.16,1.07.11.26.27.43.48.53.36.15.73.2,1.01.26.28.07.47.15.47.38,0,.13-.03.24-.12.31s-.24.11-.49.11c-.28,0-.61-.04-1.04-.08-.43-.04-.97-.07-1.69-.07-.85,0-1.33.04-1.65.07-.33.04-.51.08-.77.08-.42,0-.67-.03-.83-.11-.15-.08-.2-.21-.2-.42,0-.13.05-.22.21-.29.16-.08.43-.14.89-.24.42-.1.68-.23.84-.46.16-.24.22-.58.22-1.09v-9.28c0-.11-.02-.21-.07-.28-.05-.07-.12-.11-.24-.11h-7.8c-.13,0-.21.04-.25.11-.04.08-.05.19-.05.34v9.17c0,.55.11.92.3,1.17.19.25.45.37.76.43.28.06.57.09.78.17.21.07.36.19.36.4,0,.15-.03.27-.13.36-.1.08-.28.13-.59.13-.28,0-.43-.04-.77-.08-.34-.04-.88-.07-1.96-.07s-1.63.04-2.01.07c-.38.04-.58.08-.9.08-.21,0-.35-.05-.44-.14-.09-.09-.13-.24-.13-.43,0-.09.04-.19.12-.27.08-.08.2-.15.38-.18.8-.17,1.23-.33,1.47-.58.24-.25.27-.59.27-1.12v-18.9c0-.47-.04-.78-.13-.98-.09-.2-.23-.29-.44-.35-.64-.17-1.05-.2-1.3-.25-.25-.05-.33-.11-.33-.36,0-.11.02-.23.12-.31.1-.09.29-.14.64-.14.26,0,.68.04,1.15.08.47.04,1,.08,1.5.08.55,0,1.04-.04,1.48-.08.44-.04.83-.08,1.17-.08.3,0,.49.04.61.11.11.08.15.19.15.34,0,.26-.1.39-.29.46-.19.07-.47.09-.85.15-.29.04-.53.12-.71.28-.18.16-.28.4-.28.74v8.18c0,.13.02.24.07.31.05.07.14.11.27.11h7.76c.13,0,.21-.03.25-.1.04-.08.05-.2.05-.39v-7.57Zm21.58,20.98h0c0,.53,0,.81-.05.95-.05.14-.16.15-.37.15-.23,0-.32-.1-1.08-1.53-.76-1.43-2.18-4.19-5.05-9.49-2.56-4.71-3.83-7.22-4.51-8.55-.68-1.33-.76-1.48-.95-1.48-.09,0-.16.03-.2.15-.04.12-.06.33-.06.69v13.33c0,1.85.06,3.1.23,3.9s.47,1.16.94,1.26c.53.11,1.01.12,1.36.18.35.06.57.18.57.5,0,.15-.06.24-.15.3-.1.06-.24.08-.41.08-.23,0-.36-.04-.7-.08-.34-.04-.89-.07-1.95-.07-.95,0-1.56.04-2,.07-.45.04-.73.08-1.03.08-.15,0-.25-.04-.32-.1-.07-.07-.09-.16-.09-.27,0-.23.3-.36.66-.46.36-.09.76-.15.97-.23.36-.13.58-.4.7-.77.13-.37.17-.86.17-1.43v-17.61c0-.66-.04-1.16-.17-1.5-.13-.34-.34-.53-.7-.59-.47-.08-.8-.11-1-.18s-.29-.18-.29-.43c0-.21.13-.32.3-.38.17-.06.38-.07.53-.07.38,0,.89.02,1.38.04.49.02.95.04,1.23.04l.76.04c.28.02.46.21.63.51.17.3.32.71.55,1.16l5.42,10.38c1.57,3.01,2.39,4.55,2.85,5.34.45.79.53.83.6.83s.12-.05.15-.14c.03-.09.04-.22.04-.39v-13.94c0-1.06-.11-1.73-.34-2.15-.22-.42-.55-.59-.99-.65-.38-.06-.7-.12-.93-.21-.23-.09-.36-.21-.36-.4,0-.13.06-.25.14-.33.09-.08.21-.13.35-.13.21,0,.44.04.84.08.4.04.96.08,1.81.08.42,0,.81-.04,1.2-.08.38-.04.75-.08,1.11-.08.25,0,.4.03.49.1.09.07.12.18.12.36,0,.23-.1.34-.3.42-.21.08-.53.11-.98.19-.44.07-.71.26-.88.59-.17.33-.22.79-.22,1.41v20.53Zm7.75.87h0c-1.06,0-1.97-.11-2.71-.29-.74-.18-1.32-.41-1.72-.66-.26-.17-.43-.35-.54-.92-.1-.56-.14-1.51-.14-3.22,0-1.32.03-2.01.11-2.36.08-.35.21-.37.42-.37.23,0,.34.05.41.14.07.1.08.24.12.43.47,2.33,1.13,3.91,1.94,4.91s1.79,1.41,2.91,1.41c1.25,0,2.31-.56,3.06-1.47.75-.91,1.18-2.18,1.18-3.6,0-3.33-2.5-4.89-5-6.5-2.5-1.61-5-3.27-5-6.79,0-1.55.72-2.96,1.88-3.99,1.17-1.02,2.77-1.66,4.55-1.66.79,0,1.71.16,2.49.38.78.22,1.42.51,1.67.75.11.11.17.23.2.71.03.48.03,1.32.03,2.89,0,.99,0,1.5-.05,1.76s-.14.28-.33.28c-.27,0-.37-.15-.44-.4-.07-.25-.1-.6-.21-1-.48-1.67-1.05-2.78-1.72-3.48-.67-.7-1.43-.98-2.26-.98-.95,0-1.84.42-2.49,1.08-.65.66-1.07,1.57-1.07,2.56,0,3.35,2.5,4.77,5,6.3,2.5,1.53,5,3.17,5,6.95,0,2.16-.76,3.94-2.05,5.18-1.29,1.24-3.12,1.94-5.26,1.94m28.1-21.85h0c0-.49-.04-.85-.16-1.1-.12-.25-.33-.39-.67-.45-.45-.08-.8-.12-1.04-.19s-.36-.18-.36-.38c0-.19.09-.31.24-.39.15-.08.37-.1.64-.1.38,0,.7.04,1.11.08.41.04.9.08,1.62.08.93,0,1.46-.04,1.84-.08.38-.04.62-.08.96-.08.23,0,.37.04.46.1.09.06.11.15.11.24,0,.23-.15.38-.41.49-.26.11-.61.18-1.03.23-.25.04-.45.13-.58.26-.14.13-.21.29-.21.46v19.58c0,.45.06.8.17,1.07s.27.43.48.53c.36.15.73.2,1.01.26.28.07.47.15.47.38,0,.13-.03.24-.12.31-.09.07-.24.11-.49.11-.28,0-.61-.04-1.04-.08-.43-.04-.97-.07-1.69-.07-.85,0-1.33.04-1.65.07-.33.04-.51.08-.77.08-.42,0-.67-.03-.83-.11-.15-.08-.2-.21-.2-.42,0-.13.05-.22.21-.29.16-.08.43-.14.89-.24.42-.1.68-.23.84-.46.16-.24.22-.58.22-1.09v-9.28c0-.11-.02-.21-.07-.28-.05-.07-.12-.11-.24-.11h-7.8c-.13,0-.21.04-.25.11-.04.08-.05.19-.05.34v9.17c0,.55.11.92.3,1.17.19.25.45.37.76.43.28.06.57.09.78.17.21.07.35.19.35.4,0,.15-.03.27-.13.36-.1.08-.28.13-.59.13-.28,0-.43-.04-.77-.08-.34-.04-.88-.07-1.96-.07s-1.63.04-2.01.07c-.38.04-.58.08-.9.08-.21,0-.35-.05-.44-.14-.09-.09-.13-.24-.13-.43,0-.09.04-.19.12-.27.08-.08.2-.15.38-.18.8-.17,1.23-.33,1.47-.58.24-.25.27-.59.27-1.12v-18.9c0-.47-.04-.78-.13-.98s-.23-.29-.44-.35c-.64-.17-1.05-.2-1.3-.25-.25-.05-.33-.11-.33-.36,0-.11.02-.23.12-.31s.29-.14.63-.14c.26,0,.68.04,1.15.08.47.04,1,.08,1.5.08.55,0,1.04-.04,1.48-.08.44-.04.83-.08,1.17-.08.3,0,.49.04.61.11.11.08.15.19.15.34,0,.26-.1.39-.28.46-.19.07-.47.09-.85.15-.29.04-.53.12-.71.28-.18.16-.28.4-.28.74v8.18c0,.13.02.24.07.31.05.07.14.11.27.11h7.76c.13,0,.21-.03.25-.1.04-.08.05-.2.05-.39v-7.57Zm13.1,20.94h0c1.23,0,2.56-.75,3.57-2.57,1.02-1.82,1.73-4.71,1.73-8.99s-.71-7.17-1.73-8.98c-1.02-1.82-2.34-2.57-3.57-2.57s-2.56.75-3.58,2.57c-1.02,1.82-1.73,4.71-1.73,8.98s.71,7.17,1.73,8.99c1.02,1.82,2.34,2.57,3.58,2.57m0-24.01h0c2.18,0,4.26,1.34,5.8,3.56,1.54,2.22,2.53,5.34,2.53,8.9s-.99,6.68-2.53,8.9c-1.54,2.23-3.62,3.56-5.8,3.56s-4.26-1.33-5.8-3.56c-1.54-2.22-2.53-5.34-2.53-8.9s.99-6.67,2.53-8.9c1.54-2.23,3.62-3.56,5.8-3.56m13.02,11.25h0c0,.3.14.67.49.96.35.29.9.51,1.71.51,1.67,0,2.94-.57,3.79-1.55.85-.99,1.29-2.39,1.29-4.05s-.46-3.18-1.33-4.19c-.88-1.01-2.17-1.57-3.86-1.57-.78,0-1.3.09-1.62.3-.33.2-.46.52-.46.95v8.64Zm-2.5-7.92h0c0-.64-.09-1.08-.26-1.36-.17-.28-.43-.42-.77-.45-.59-.08-.94-.12-1.14-.19-.2-.07-.26-.18-.26-.38,0-.13.02-.26.1-.35.09-.09.24-.15.51-.15.55,0,1.08.04,1.59.08.51.04,1,.08,1.48.08.7,0,1.44-.04,2.17-.08.73-.04,1.46-.08,2.15-.08,1.95,0,3.7.6,4.97,1.75,1.26,1.15,2.04,2.87,2.04,5.1,0,1.88-.76,3.46-1.98,4.57-1.22,1.11-2.89,1.76-4.73,1.76-.97,0-1.55-.1-1.98-.19-.43-.09-.69-.19-1.01-.19-.15,0-.25.06-.3.16-.06.1-.08.24-.08.41v7.65c0,.62.08,1.08.25,1.39.17.31.45.49.85.54.64.09,1.13.13,1.45.2.32.07.48.16.48.37,0,.13-.06.25-.17.34-.11.09-.28.15-.51.15-.28,0-.6-.04-1.11-.08-.51-.04-1.22-.07-2.3-.07s-1.76.04-2.2.07c-.44.04-.66.08-.87.08-.3,0-.5-.03-.62-.09s-.17-.15-.17-.29c0-.23.07-.36.29-.46.22-.09.6-.15,1.23-.23.34-.04.57-.18.71-.44.14-.26.2-.62.2-1.12v-18.52Zm17.64,17.88h0c0,.89.04,1.39.23,1.7.19.31.53.44,1.14.57.34.07.54.14.65.22.11.08.14.18.14.31,0,.17-.06.28-.21.35-.16.07-.41.1-.81.1-.24,0-.57-.04-.96-.08-.39-.04-.84-.07-1.35-.07-.7,0-1.2.04-1.62.07-.42.04-.76.08-1.14.08-.25,0-.42-.04-.53-.12-.11-.08-.16-.2-.16-.37,0-.15.03-.27.13-.36.1-.09.29-.15.59-.21.61-.11.96-.21,1.15-.49.2-.28.25-.74.25-1.6v-17.99c0-.68-.04-1.1-.15-1.36s-.29-.38-.57-.45c-.45-.11-.8-.15-1.04-.22-.24-.07-.36-.18-.36-.42,0-.11.06-.22.16-.29.1-.08.26-.12.45-.12.15,0,.32.04.73.08.41.04,1.07.08,2.18.08.68,0,1.22-.04,1.65-.08.43-.04.75-.08,1-.08.23,0,.38.04.47.11.09.08.13.19.13.34,0,.26-.08.35-.28.4-.2.05-.54.07-1.05.21-.28.07-.49.21-.63.41-.14.2-.2.46-.2.8v7.12c0,.55.01.85.03,1.02.02.17.05.19.09.19.02,0,.1-.09.23-.23.13-.15.3-.36.49-.6.64-.78,1.67-2.03,2.69-3.32,1.02-1.29,2.03-2.63,2.66-3.57.15-.23.26-.44.34-.61.08-.18.11-.33.11-.45,0-.25-.08-.43-.25-.56-.17-.14-.43-.23-.81-.31-.32-.06-.56-.1-.71-.18s-.23-.18-.23-.35c0-.11.06-.22.18-.29.12-.08.3-.12.54-.12.32,0,.77.04,1.24.08.48.04.99.08,1.44.08.53,0,1.04-.04,1.48-.08.44-.04.79-.08,1.02-.08.3,0,.5.04.62.11s.17.18.17.31c0,.23-.09.31-.27.36-.18.05-.46.06-.84.13-.43.1-.99.46-1.7,1.12-.71.66-1.57,1.61-2.61,2.86-1.38,1.72-2.09,2.65-2.46,3.18-.36.53-.38.66-.38.8,0,.19.1.38.8,1.71s1.98,3.8,4.35,8.55c.89,1.78,1.38,2.68,1.73,3.16.35.48.54.55.85.66.23.09.48.12.68.18.2.06.34.16.34.38,0,.11-.04.23-.15.33-.11.09-.3.16-.6.16-.34,0-.58-.04-.93-.08-.35-.04-.83-.07-1.64-.07-1.04,0-1.66.04-2.06.07-.4.04-.59.08-.78.08-.36,0-.59-.04-.74-.12-.15-.09-.2-.22-.2-.41,0-.13.03-.23.17-.3.14-.08.4-.15.85-.22.51-.1.8-.19.97-.32.17-.13.2-.29.2-.52,0-.25-.03-.42-.26-.93-.23-.51-.67-1.36-1.48-2.97-1.71-3.39-2.62-5.18-3.14-6.12-.52-.94-.63-1.04-.72-1.04-.15,0-.48.29-.76.64-.28.35-.53.76-.53.99v8.07Zm18.28.23h0c0,.53.05.97.22,1.3.18.33.48.56.99.67.36.07.74.12,1.03.22.29.1.49.24.49.5,0,.1-.04.18-.16.24-.12.06-.33.1-.67.1-.17,0-.3-.04-.72-.08-.42-.04-1.12-.07-2.42-.07s-2,.04-2.41.07c-.41.04-.54.08-.73.08-.23,0-.41,0-.53-.05s-.19-.15-.19-.36c0-.23.17-.35.43-.43.26-.08.6-.13.94-.21.57-.13.88-.25,1.05-.49.17-.25.2-.62.2-1.29v-18.75c0-.51-.08-.82-.25-1.02-.17-.2-.44-.28-.81-.34-.62-.1-1.02-.1-1.27-.16-.24-.06-.33-.16-.33-.44,0-.11.05-.23.17-.31.12-.09.32-.14.62-.14.47,0,.97.04,1.5.08.52.04,1.06.08,1.61.08.59,0,1.18-.04,1.74-.08.55-.04,1.07-.08,1.48-.08.27,0,.47.04.61.12.14.08.22.2.22.37,0,.23-.11.32-.39.38-.28.06-.71.09-1.35.19-.4.06-.66.22-.83.45-.17.24-.23.55-.23.91v18.56Zm19.48,2.61h0c0,.53,0,.81-.05.95-.05.14-.16.15-.36.15-.23,0-.32-.1-1.08-1.53s-2.18-4.19-5.06-9.49c-2.56-4.71-3.83-7.22-4.5-8.55-.68-1.33-.76-1.48-.95-1.48-.1,0-.16.03-.21.15-.04.12-.06.33-.06.69v13.33c0,1.85.06,3.1.23,3.9.17.8.47,1.16.94,1.26.53.11,1.01.12,1.36.18.35.06.57.18.57.5,0,.15-.06.24-.16.3-.1.06-.24.08-.41.08-.23,0-.36-.04-.7-.08-.34-.04-.89-.07-1.95-.07-.95,0-1.55.04-2,.07-.45.04-.73.08-1.03.08-.15,0-.26-.04-.32-.1-.07-.07-.09-.16-.09-.27,0-.23.3-.36.66-.46.36-.09.76-.15.97-.23.36-.13.58-.4.7-.77.13-.37.17-.86.17-1.43v-17.61c0-.66-.04-1.16-.17-1.5-.13-.34-.34-.53-.7-.59-.47-.08-.8-.11-1-.18-.2-.07-.29-.18-.29-.43,0-.21.13-.32.3-.38.17-.06.38-.07.53-.07.38,0,.89.02,1.38.04.49.02.95.04,1.24.04l.76.04c.28.02.46.21.63.51s.32.71.54,1.16l5.42,10.38c1.57,3.01,2.4,4.55,2.85,5.34.45.79.53.83.6.83s.12-.05.15-.14c.03-.09.04-.22.04-.39v-13.94c0-1.06-.11-1.73-.34-2.15-.22-.42-.55-.59-.99-.65-.38-.06-.7-.12-.93-.21-.23-.09-.36-.21-.36-.4,0-.13.06-.25.15-.33.09-.08.21-.13.35-.13.21,0,.45.04.84.08.4.04.95.08,1.81.08.42,0,.82-.04,1.2-.08.38-.04.75-.08,1.11-.08.25,0,.4.03.49.1.09.07.12.18.12.36,0,.23-.09.34-.3.42-.21.08-.53.11-.98.19-.44.07-.71.26-.88.59-.17.33-.22.79-.22,1.41v20.53Zm7.43.87h0c-1.06,0-1.97-.11-2.72-.29-.74-.18-1.32-.41-1.72-.66-.26-.17-.43-.35-.54-.92-.1-.56-.14-1.51-.14-3.22,0-1.32.03-2.01.11-2.36.08-.35.21-.37.42-.37.23,0,.34.05.41.14.07.1.09.24.12.43.47,2.33,1.13,3.91,1.94,4.91.81,1,1.79,1.41,2.91,1.41,1.25,0,2.31-.56,3.06-1.47.75-.91,1.18-2.18,1.18-3.6,0-3.33-2.5-4.89-5-6.5-2.5-1.61-5-3.27-5-6.79,0-1.55.72-2.96,1.88-3.99,1.16-1.02,2.77-1.66,4.55-1.66.79,0,1.71.16,2.49.38.78.22,1.42.51,1.67.75.11.11.17.23.2.71.03.48.03,1.32.03,2.89,0,.99,0,1.5-.05,1.76-.05.26-.14.28-.33.28-.26,0-.37-.15-.43-.4-.07-.25-.09-.6-.21-1-.47-1.67-1.05-2.78-1.72-3.48-.67-.7-1.42-.98-2.26-.98-.95,0-1.84.42-2.49,1.08-.65.66-1.07,1.57-1.07,2.56,0,3.35,2.5,4.77,5,6.3,2.5,1.53,5,3.17,5,6.95,0,2.16-.76,3.94-2.05,5.18-1.29,1.24-3.12,1.94-5.26,1.94m-138.3,25.34h0c.41,0,.83-.12,1.2-.48.37-.35.7-.95.94-1.89.26-1.02.4-1.55.51-1.81.11-.27.17-.28.29-.28.19,0,.3.01.36.34.06.32.07.96.07,2.21,0,.59-.02.97-.07,1.22-.05.26-.14.4-.27.53-.16.15-.55.35-1.09.51-.54.16-1.23.29-1.98.29-1.8,0-3.25-.88-4.25-2.27-1-1.38-1.55-3.26-1.55-5.27,0-2.3.64-4.16,1.69-5.44,1.04-1.29,2.49-2,4.09-2,.59,0,1.13.06,1.61.17.48.11.89.28,1.23.49.12.08.19.13.23.36.04.23.04.64.04,1.44,0,.84-.01,1.29-.07,1.52s-.17.26-.36.26c-.1,0-.19-.06-.32-.27-.12-.22-.28-.59-.5-1.23-.33-.92-.63-1.44-.95-1.74-.32-.29-.65-.36-1.03-.36-1.02,0-1.83.5-2.37,1.59s-.84,2.77-.84,5.12.41,4.12,1.04,5.28c.63,1.15,1.48,1.71,2.35,1.71m10.78-7.39h0c0-.64-.15-1.1-.4-1.4-.25-.3-.6-.44-1.01-.44-.44,0-.84.14-1.17.43-.33.29-.6.71-.79,1.28v6.33c0,.31.02.49.15.63.13.14.37.24.8.39.1.03.18.07.24.11.05.04.08.09.08.16s-.02.14-.06.19c-.04.05-.11.08-.21.08-.22,0-.48-.02-.8-.05-.32-.02-.71-.05-1.18-.05-.36,0-.72.02-1.04.05-.31.02-.58.05-.76.05-.13,0-.22-.01-.28-.05-.06-.04-.09-.1-.09-.2,0-.09.05-.16.13-.21.08-.05.2-.09.35-.13.31-.07.51-.14.63-.3.12-.15.17-.39.17-.77v-11.83c0-.53-.1-.79-.25-.91s-.35-.12-.54-.16c-.12-.01-.23-.02-.3-.06-.07-.03-.11-.09-.11-.19s.04-.17.12-.22c.08-.05.19-.09.34-.12.77-.16,1.25-.42,1.6-.64.35-.22.57-.4.83-.4.07,0,.11.02.14.07.03.05.04.13.04.25v6.94h.05c.44-.57.88-1.02,1.32-1.32.44-.31.89-.47,1.37-.47.7,0,1.33.18,1.78.63.45.45.72,1.17.72,2.24v6.51c0,.18.06.33.21.46.15.13.4.24.79.36.08.02.15.06.2.1.05.05.08.11.08.19s-.03.14-.08.19c-.05.04-.12.07-.22.07-.14,0-.34-.02-.65-.05-.31-.02-.73-.05-1.31-.05-.27,0-.55.02-.83.05-.28.02-.56.05-.83.05-.14,0-.24-.02-.31-.05-.07-.04-.1-.09-.1-.17,0-.09.02-.15.07-.19.06-.05.15-.08.31-.12.34-.1.54-.18.65-.3.11-.12.14-.27.14-.52v-6.39Zm7.38,6.19h0c0,.35.05.59.18.75.13.16.34.24.66.27.19.02.32.06.41.11.08.05.12.1.12.16,0,.07-.02.14-.07.19-.06.05-.15.08-.31.08-.22,0-.47-.02-.79-.05-.32-.02-.7-.05-1.17-.05-.5,0-.93.02-1.27.05-.35.02-.61.05-.8.05-.13,0-.22-.01-.28-.05-.06-.04-.09-.1-.09-.2,0-.09.06-.16.15-.21.09-.05.21-.09.33-.13.44-.12.71-.2.87-.34.16-.14.2-.34.2-.73v-6.6c0-.31-.09-.47-.23-.56s-.34-.12-.57-.17c-.13-.02-.23-.04-.31-.08-.08-.04-.12-.1-.12-.22,0-.12.04-.19.11-.24.07-.04.18-.07.32-.1.89-.23,1.46-.51,1.83-.73.37-.22.54-.39.63-.39.07,0,.12.02.15.06.03.05.05.13.05.25v8.85Zm-.89-12.99h0c.32,0,.58.15.76.38.18.23.28.55.28.89s-.1.66-.28.89c-.18.23-.44.38-.76.38s-.58-.15-.76-.38c-.18-.23-.29-.55-.29-.89s.1-.66.29-.89c.18-.23.44-.38.76-.38m6.49,12.86h0c0,.42.09.67.26.83.17.16.41.24.72.33.24.07.4.09.51.13.1.04.15.09.15.21,0,.07-.02.12-.08.15-.05.04-.14.05-.26.05-.32,0-.7-.02-1.11-.05-.4-.02-.82-.05-1.21-.05-.33,0-.71.02-1.05.05-.35.02-.68.05-.9.05-.13,0-.24,0-.33-.04-.09-.03-.14-.09-.14-.19,0-.07.03-.12.1-.18.07-.05.18-.1.35-.14.5-.11.79-.22.94-.43.16-.21.19-.54.19-1.1v-11.6c0-.27-.07-.47-.18-.6-.12-.14-.28-.22-.47-.26-.18-.03-.33-.06-.43-.1-.1-.04-.16-.1-.16-.22,0-.12.06-.19.15-.23.09-.04.21-.06.32-.09.98-.28,1.56-.54,1.91-.72.35-.18.48-.29.55-.31.07,0,.11.02.14.07.03.05.04.13.04.25v14.18Zm8.25-6.01h0c0-.69-.15-1.31-.44-1.76-.29-.45-.72-.72-1.26-.72-.59,0-1.18.36-1.63,1.16-.44.79-.74,2.02-.74,3.74,0,1.47.26,2.58.66,3.32.41.74.96,1.12,1.57,1.12.5,0,.96-.15,1.3-.5.34-.35.55-.91.55-1.73v-4.62Zm1.87,6.3h0c0,.11.02.21.06.27.04.06.11.1.21.1.22,0,.32-.23.42-.46.1-.23.18-.46.35-.46.07,0,.13.01.18.04.05.03.07.07.07.14v.73c0,.18-.08.28-.27.39-.19.11-.48.23-.92.45-.69.34-1.08.52-1.29.61s-.27.1-.3.1c-.19,0-.22-.35-.24-.71-.02-.35-.03-.71-.19-.71-.19,0-.45.3-.87.59-.42.29-1.02.59-1.88.59s-1.73-.5-2.35-1.38c-.62-.88-1.02-2.14-1.02-3.67,0-1.71.46-3.2,1.21-4.26.75-1.06,1.8-1.7,2.97-1.7.44,0,.85.11,1.16.23.32.11.54.23.63.23.06,0,.1-.02.13-.1.03-.08.05-.22.05-.47v-2.57c0-.32,0-.59-.08-.79-.08-.2-.23-.33-.54-.37-.17-.01-.33-.04-.45-.09-.12-.05-.19-.12-.19-.21,0-.1.04-.16.12-.21.08-.05.2-.08.36-.13.88-.24,1.44-.48,1.81-.67.37-.18.55-.31.65-.31.07,0,.11.02.14.07.03.05.04.13.04.25v14.47Zm5.6-.41h0c0,.41.06.71.21.91.15.2.39.32.74.36.42.06.65.1.77.14.12.05.14.11.14.2,0,.05-.02.1-.06.14s-.1.07-.19.07c-.19,0-.47-.02-.87-.05-.4-.02-.92-.05-1.59-.05-.59,0-1.07.02-1.45.05-.38.02-.67.05-.87.05-.08,0-.15-.01-.21-.04-.05-.03-.09-.07-.09-.14,0-.09.03-.15.13-.21.1-.05.27-.1.56-.16.35-.07.55-.16.65-.33.11-.17.12-.41.12-.79v-6.49c0-.26-.11-.41-.26-.5-.15-.09-.35-.12-.53-.14-.15-.02-.28-.05-.37-.09-.09-.04-.15-.1-.15-.19,0-.17.1-.22.37-.33.27-.1.71-.26,1.38-.63.47-.26.7-.47.84-.61s.19-.21.3-.21c.06,0,.1.05.12.14.03.09.04.23.04.41v1.78s0,.06.01.07c0,.01.02.02.03.02.05,0,.31-.58.75-1.16.44-.58,1.07-1.16,1.84-1.16.41,0,.76.17,1.01.44.25.27.4.63.4,1.02,0,.37-.1.74-.29,1.02-.19.28-.47.48-.82.48-.27,0-.46-.07-.59-.19-.13-.12-.21-.29-.27-.5-.07-.23-.08-.44-.12-.6-.04-.16-.12-.26-.31-.26-.39,0-.73.34-.97.88-.24.54-.39,1.28-.39,2.07v4.55Zm8.78-8.37h0c-.94,0-1.5.73-1.81,1.52-.31.79-.39,1.64-.39,1.87,0,.18.05.3.2.38.15.07.39.1.76.1,1.07,0,1.76-.07,2.18-.31.42-.24.58-.64.58-1.3,0-.48-.1-1.04-.33-1.48-.24-.44-.61-.77-1.17-.77m-1.82,4.41h0c-.19,0-.31.02-.38.12s-.09.31-.09.67c0,1.09.24,2.12.69,2.88.46.76,1.13,1.24,1.99,1.24,1.19,0,1.76-.46,2.08-.91.32-.46.41-.91.65-.91.09,0,.15.02.19.07.04.05.06.11.06.21,0,.28-.27.96-.85,1.56s-1.49,1.13-2.76,1.13c-1.15,0-2.18-.47-2.93-1.38-.75-.91-1.21-2.26-1.21-4.01,0-1.47.41-2.87,1.15-3.91.75-1.04,1.83-1.71,3.17-1.71,1.18,0,2.04.51,2.6,1.27.56.76.83,1.77.83,2.76,0,.39-.05.62-.15.76-.11.14-.28.18-.53.18h-4.51Zm12.43-1.98h0c0-.66-.15-1.12-.4-1.42-.25-.3-.6-.43-1.01-.43-.43,0-.82.15-1.16.44-.33.29-.61.71-.8,1.27v6.33c0,.35.07.57.2.72.13.15.32.23.55.3.23.07.36.12.43.17.07.05.09.09.09.15,0,.07-.02.13-.06.17-.04.04-.11.06-.21.06-.22,0-.48-.02-.8-.05-.33-.02-.71-.05-1.18-.05-.36,0-.72.02-1.04.05-.31.02-.58.05-.76.05-.13,0-.22-.01-.28-.05-.06-.04-.09-.1-.09-.2,0-.09.05-.16.13-.21.08-.05.2-.09.35-.13.31-.07.51-.14.63-.3.12-.15.17-.39.17-.77v-6.37c0-.34-.03-.53-.1-.65-.07-.12-.19-.16-.38-.22-.16-.05-.33-.05-.46-.06-.13-.02-.22-.06-.22-.19,0-.16.11-.23.34-.32.23-.09.58-.2,1.04-.45.65-.35.94-.59,1.1-.74.16-.15.2-.21.35-.21.07,0,.11.02.14.08.03.06.04.15.04.29v1.57h.04c.38-.45.72-.9,1.13-1.24.41-.34.9-.56,1.56-.56.7,0,1.33.19,1.78.65.45.46.72,1.17.72,2.22v6.51c0,.23.05.41.17.55.12.14.31.23.58.27.23.04.36.09.43.15.07.06.09.12.09.22,0,.05-.03.09-.08.13-.05.03-.12.06-.21.06-.14,0-.34-.02-.65-.05-.31-.02-.73-.05-1.31-.05-.27,0-.55.02-.83.05-.28.02-.56.05-.83.05-.14,0-.24-.02-.31-.05s-.1-.09-.1-.17c0-.09.02-.15.07-.19.06-.05.15-.08.31-.12.34-.1.54-.18.65-.3.11-.12.14-.27.14-.52v-6.39Zm4.4-1.71h0s-.09-.02-.12-.05c-.03-.03-.06-.08-.06-.13,0-.15.31-.46.61-.85.31-.39.61-.86.61-1.31,0-.4-.36-.55-.73-.75-.36-.21-.73-.47-.73-1.09,0-.28.12-.55.31-.74.19-.19.45-.31.74-.31.5,0,.82.23,1.01.57.19.34.26.79.26,1.23,0,1-.42,1.86-.86,2.47-.45.61-.92.97-1.05.97m2.92,6.62h0c0-.15.03-.26.08-.33.06-.07.14-.11.26-.11.1,0,.19.05.28.21.1.16.2.42.35.84.2.6.46,1.09.8,1.43.34.34.77.53,1.32.53s.94-.22,1.23-.57c.29-.35.45-.85.45-1.41,0-1.33-1.21-1.97-2.41-2.63-1.21-.67-2.41-1.36-2.41-2.8,0-1,.48-1.76,1.16-2.28s1.56-.77,2.34-.77c.4,0,.83.04,1.21.1.38.06.7.14.89.22.14.06.21.12.25.34.04.22.05.6.05,1.28,0,.36-.02.58-.08.71s-.16.16-.33.16c-.32,0-.39-.56-.64-1.13s-.68-1.13-1.7-1.13c-.48,0-.86.16-1.13.43-.27.27-.41.65-.41,1.1,0,1.19,1.21,1.72,2.41,2.38,1.21.66,2.41,1.45,2.41,3.17,0,.96-.41,1.8-1.11,2.41-.71.61-1.71.98-2.89.98-.48,0-1.07-.09-1.54-.23-.47-.14-.82-.34-.82-.54v-2.34Zm-94.93-2.94h0c.08,0,.13,0,.16,0,.03,0,.04-.03.04-.06,0-.08-.03-.22-.18-.72-.14-.5-.39-1.35-.82-2.85-.17-.59-.26-.91-.31-1.08-.05-.17-.08-.19-.12-.19-.06,0-.09.03-.19.4-.11.37-.3,1.08-.67,2.42-.24.89-.38,1.38-.46,1.65-.08.28-.11.34-.11.37,0,.02.01.04.05.05.04.01.1.02.2.02h2.41Zm-2.66.64h0c-.17,0-.26.03-.34.23-.08.2-.16.56-.32,1.22-.23.96-.37,1.51-.46,1.84-.09.33-.11.45-.11.53,0,.15.05.28.15.39.11.11.28.21.53.29.22.07.48.08.7.11.21.03.37.08.37.23,0,.07-.02.14-.08.2-.06.06-.16.1-.33.1-.1,0-.38-.02-.69-.05-.32-.02-.68-.05-.95-.05-.55,0-.92.02-1.18.05-.26.02-.42.05-.53.05-.08,0-.14-.02-.17-.05s-.05-.09-.05-.17c0-.17.07-.22.21-.26.13-.03.33-.05.57-.15.26-.11.45-.44.8-1.49.35-1.05.87-2.84,1.79-5.88,1-3.3,1.46-4.97,1.72-5.82.26-.85.32-.87.53-.87.24,0,.31.07.68,1.27.36,1.21,1.02,3.55,2.42,8.1.57,1.84.89,2.98,1.12,3.67.23.69.38.94.61,1.02.26.09.46.12.59.16.13.04.2.09.2.23,0,.08-.02.14-.08.19-.07.04-.19.07-.39.07-.18,0-.46-.02-.79-.05-.33-.02-.72-.05-1.15-.05-.61,0-1.13.02-1.52.05-.39.02-.66.05-.78.05s-.2-.03-.24-.08c-.04-.05-.05-.12-.05-.2,0-.1.06-.15.21-.19.15-.04.4-.08.79-.17.15-.03.25-.12.31-.22.06-.1.08-.21.08-.31,0-.1-.03-.23-.11-.53-.09-.3-.23-.79-.46-1.61-.23-.83-.34-1.29-.43-1.54-.09-.25-.17-.3-.32-.3h-2.84Zm11.62,3.44h0c0,.42.09.67.26.83.17.16.41.24.72.33.24.07.4.09.51.13.11.04.15.09.15.21,0,.07-.02.12-.08.15-.05.04-.14.05-.27.05-.32,0-.71-.02-1.11-.05-.4-.02-.82-.05-1.21-.05-.33,0-.71.02-1.05.05-.35.02-.67.05-.9.05-.13,0-.25,0-.33-.04-.09-.03-.15-.09-.15-.19,0-.07.03-.12.1-.18.07-.05.18-.1.36-.14.5-.11.78-.22.94-.43.16-.21.19-.54.19-1.1v-11.6c0-.27-.07-.47-.18-.6-.12-.14-.28-.22-.48-.26-.18-.03-.33-.06-.43-.1-.1-.04-.16-.1-.16-.22,0-.12.06-.19.15-.23.09-.04.21-.06.32-.09.98-.28,1.56-.54,1.91-.72.35-.18.48-.29.55-.31.07,0,.11.02.14.07.03.05.04.13.04.25v14.18Zm5.74,0h0c0,.42.09.67.26.83.17.16.41.24.72.33.24.07.4.09.51.13.1.04.15.09.15.21,0,.07-.02.12-.08.15-.05.04-.14.05-.27.05-.32,0-.71-.02-1.11-.05-.4-.02-.83-.05-1.21-.05-.33,0-.71.02-1.06.05-.35.02-.67.05-.9.05-.13,0-.24,0-.33-.04-.09-.03-.15-.09-.15-.19,0-.07.03-.12.1-.18.07-.05.18-.1.36-.14.5-.11.78-.22.94-.43.16-.21.19-.54.19-1.1v-11.6c0-.27-.07-.47-.18-.6-.12-.14-.28-.22-.48-.26-.18-.03-.33-.06-.43-.1-.1-.04-.16-.1-.16-.22,0-.12.06-.19.15-.23.09-.04.21-.06.32-.09.98-.28,1.56-.54,1.91-.72.35-.18.48-.29.55-.31.07,0,.11.02.14.07.03.05.04.13.04.25v14.18Zm100.6-6.44h0c.12,0,.22-.03.28-.1.06-.06.09-.15.09-.27v-4.28c0-.4-.02-.62-.12-.76-.11-.14-.31-.19-.67-.24-.29-.03-.45-.08-.54-.14-.09-.06-.12-.13-.12-.21s.03-.15.1-.21c.06-.05.15-.09.27-.09.14,0,.34.02.68.05.34.02.83.04,1.55.04.76,0,1.2-.02,1.49-.04.29-.02.44-.05.63-.05.15,0,.24.02.29.07.05.04.07.11.07.18,0,.1-.04.17-.15.23-.11.06-.28.1-.54.16-.29.06-.46.11-.57.2s-.14.24-.14.48v11.47c0,.27.03.46.14.61s.32.26.67.39c.23.08.39.11.49.15.1.05.15.11.15.26,0,.09-.03.15-.11.18-.07.03-.18.05-.33.05-.18,0-.33-.02-.63-.05-.3-.02-.75-.05-1.53-.05-.64,0-1.12.02-1.49.05-.37.02-.63.05-.81.05-.1,0-.18-.03-.22-.09-.05-.06-.07-.14-.07-.23,0-.11.02-.18.11-.22s.27-.07.57-.1c.26-.03.47-.13.61-.31.14-.19.21-.46.21-.87v-5.32c0-.11-.03-.2-.09-.27-.06-.06-.15-.1-.28-.1h-3.91c-.13,0-.22.03-.28.1-.06.06-.09.15-.09.27v5.48c0,.33.02.51.16.64.14.13.4.23.88.38.14.05.26.07.35.12.09.04.15.1.15.2,0,.12-.03.21-.11.25-.07.05-.18.07-.33.07-.2,0-.46-.02-.8-.05-.34-.02-.76-.05-1.29-.05-.66,0-1.17.02-1.55.05-.38.02-.64.05-.8.05-.14,0-.23-.01-.28-.05-.06-.04-.08-.11-.08-.22s.03-.18.11-.23c.08-.05.22-.08.43-.14.38-.1.6-.19.74-.35.13-.16.17-.38.17-.74v-11.29c0-.27-.04-.44-.12-.56-.08-.11-.19-.17-.34-.22-.21-.07-.43-.07-.6-.1-.17-.03-.29-.07-.29-.22,0-.1.03-.18.09-.24s.17-.08.32-.08c.23,0,.47.02.81.05.34.02.79.04,1.44.04s1.11-.02,1.46-.04c.35-.02.59-.04.81-.05.08,0,.15.02.21.05s.09.09.09.17c0,.16-.06.21-.22.25s-.42.06-.83.16c-.24.06-.39.16-.49.32-.09.16-.13.38-.13.68v4.28c0,.11.03.21.09.27.06.06.15.1.28.1h3.91Zm11.74,2.91h0c0-1.06-.2-2.3-.58-3.27-.38-.98-.95-1.69-1.69-1.69s-1.31.71-1.69,1.69c-.38.98-.58,2.22-.58,3.27s.2,2.3.58,3.27c.38.98.95,1.69,1.69,1.69s1.31-.71,1.69-1.69c.38-.98.58-2.22.58-3.27m-2.27,5.51h0c-1.26,0-2.35-.64-3.13-1.65-.78-1.01-1.24-2.39-1.24-3.85s.46-2.84,1.24-3.85c.78-1.01,1.87-1.65,3.13-1.65s2.35.64,3.13,1.65c.78,1.01,1.24,2.39,1.24,3.85s-.46,2.85-1.24,3.85c-.78,1.01-1.87,1.65-3.13,1.65m6.03-3.12h0c0-.15.03-.26.08-.33.06-.07.14-.11.26-.11.1,0,.19.05.28.21.1.16.21.42.35.84.2.6.46,1.09.8,1.43.34.34.77.53,1.32.53s.94-.22,1.23-.57c.29-.35.45-.85.45-1.41,0-1.33-1.21-1.97-2.41-2.63-1.21-.67-2.41-1.36-2.41-2.8,0-1,.48-1.76,1.16-2.28.68-.51,1.55-.77,2.34-.77.4,0,.83.04,1.21.1.38.06.7.14.89.22.14.06.21.12.25.34.04.22.05.6.05,1.28,0,.36-.02.58-.08.71-.06.12-.16.16-.33.16-.32,0-.39-.56-.64-1.13-.25-.56-.68-1.13-1.7-1.13-.48,0-.86.16-1.13.43-.27.27-.41.65-.41,1.1,0,1.19,1.21,1.72,2.41,2.38,1.21.66,2.41,1.45,2.41,3.17,0,.96-.41,1.8-1.11,2.41-.71.61-1.71.98-2.89.98-.48,0-1.07-.09-1.54-.23-.47-.14-.83-.34-.83-.54v-2.34Zm10.54-.02h0c0,.77.14,1.37.4,1.76.27.4.66.6,1.19.6.73,0,1.32-.43,1.73-1.21.41-.78.64-1.91.64-3.29s-.23-2.58-.63-3.37-.97-1.22-1.67-1.22c-.46,0-.87.19-1.17.48-.3.28-.49.65-.49,1v5.26Zm0,5.76h0c0,.49.06.8.27,1,.21.2.55.29,1.12.35.22.02.35.05.42.09.08.04.1.1.1.18s-.02.15-.08.2c-.06.05-.16.08-.3.08-.27,0-.52-.02-.87-.05-.35-.02-.78-.05-1.43-.05-.33,0-.66.02-.99.05-.33.02-.66.05-.99.05-.15,0-.28,0-.38-.04-.1-.04-.16-.11-.16-.23,0-.15.06-.21.15-.25s.22-.04.35-.07c.24-.04.47-.06.64-.14.17-.08.29-.23.29-.55v-11.6c0-.33-.09-.49-.23-.58-.15-.09-.36-.12-.61-.19-.15-.04-.28-.07-.37-.11-.09-.04-.15-.09-.15-.19,0-.17.12-.23.42-.33.3-.1.77-.25,1.46-.6.43-.22.67-.38.82-.48.15-.11.22-.16.32-.16.06,0,.09.01.11.08.02.07.03.21.03.46,0,.44,0,.67.02.79.01.12.04.12.07.12.05,0,.34-.36.8-.73s1.08-.73,1.77-.73c1,0,1.87.57,2.48,1.5s.98,2.22.98,3.67c0,1.76-.48,3.17-1.24,4.13-.76.96-1.79,1.49-2.88,1.49-.59,0-1.03-.15-1.33-.3-.3-.15-.47-.29-.51-.29-.03,0-.06.01-.07.05-.01.04-.02.12-.02.24v3.14Zm10.35-4.46h0c0,.35.05.59.18.75.13.16.34.24.66.27.19.02.32.06.41.11.08.05.12.1.12.16,0,.07-.02.14-.07.19-.06.05-.15.08-.31.08-.22,0-.47-.02-.79-.05-.32-.02-.7-.05-1.17-.05-.5,0-.93.02-1.27.05-.35.02-.61.05-.8.05-.12,0-.22-.01-.28-.05-.06-.04-.09-.1-.09-.2,0-.09.06-.16.14-.21.09-.05.21-.09.33-.13.44-.12.71-.2.87-.34s.2-.34.2-.73v-6.6c0-.31-.09-.47-.23-.56-.14-.09-.34-.12-.57-.17-.12-.02-.23-.04-.31-.08-.08-.04-.12-.1-.12-.22,0-.12.04-.19.11-.24.07-.04.18-.07.32-.1.89-.23,1.46-.51,1.83-.73.37-.22.54-.39.63-.39.07,0,.12.02.15.06.03.05.05.13.05.25v8.85Zm-.89-12.99h0c.32,0,.58.15.76.38.18.23.28.55.28.89s-.1.66-.28.89c-.18.23-.44.38-.76.38s-.58-.15-.76-.38c-.18-.23-.28-.55-.28-.89s.1-.66.28-.89c.18-.23.44-.38.76-.38m5.72,4.19h1.46c.11,0,.18.02.22.08.04.06.05.16.05.31s-.01.24-.05.3c-.04.06-.11.08-.22.08h-1.34s-.07.02-.09.05c-.02.03-.02.06-.02.08v6.99c0,.5.06.85.17,1.07s.28.32.51.32c.32,0,.53-.27.7-.55.17-.27.3-.55.46-.55.07,0,.12.02.15.07.03.05.05.12.05.22,0,.17-.18.71-.54,1.21-.36.5-.91.95-1.65.95-.67,0-1.1-.31-1.37-.8-.26-.5-.36-1.18-.36-1.93v-6.78c0-.14-.02-.23-.06-.28s-.1-.08-.19-.08h-.61c-.1,0-.16-.02-.19-.05-.03-.03-.04-.08-.04-.15,0-.14.1-.23.31-.4.21-.17.51-.41.92-.86.58-.62.85-1.18,1.03-1.58s.26-.65.47-.65c.06,0,.11.03.16.09.04.06.07.15.07.25v2.57Zm8.01,4.87h0c0-.14-.02-.22-.05-.26-.04-.05-.09-.06-.17-.06-.15,0-.74.45-1.31,1.1-.57.65-1.11,1.5-1.14,2.29,0,.35.1.67.27.89.18.22.43.36.75.36.54,0,.95-.21,1.23-.67.28-.46.43-1.18.43-2.2v-1.46Zm1.87,3.14h0c0,.46.1.75.25.93.14.18.33.25.5.25.24,0,.38-.18.5-.36.12-.18.23-.36.41-.36.07,0,.12.02.15.07.04.04.05.11.05.2,0,.38-.25.83-.62,1.19-.37.36-.87.63-1.36.63-.73,0-1.13-.42-1.39-.84-.26-.42-.36-.84-.5-.84s-.38.44-.8.89c-.43.44-1.04.89-1.93.89-.59,0-1.07-.16-1.4-.49-.33-.33-.51-.82-.51-1.49,0-1.25,1.19-2.28,2.39-3.17,1.19-.89,2.39-1.65,2.39-2.36v-1.96c0-.3-.08-.55-.25-.72-.16-.18-.4-.28-.71-.28-.43,0-.84.18-1.15.51-.31.33-.53.82-.6,1.42-.06.5-.2.9-.43,1.18-.23.28-.56.43-.98.43-.27,0-.48-.07-.61-.2-.14-.13-.21-.32-.21-.55,0-.44.46-1.28,1.25-2,.8-.73,1.93-1.34,3.3-1.34.89,0,1.45.08,1.79.31.34.23.46.62.46,1.23v6.83Zm5.91.66h0c0,.42.09.67.26.83.17.16.41.24.72.33.24.07.4.09.51.13.1.04.15.09.15.21,0,.07-.02.12-.08.15-.05.04-.14.05-.26.05-.32,0-.71-.02-1.11-.05-.4-.02-.82-.05-1.21-.05-.33,0-.71.02-1.05.05-.35.02-.68.05-.9.05-.12,0-.24,0-.33-.04-.09-.03-.14-.09-.14-.19,0-.07.03-.12.1-.18.07-.05.18-.1.36-.14.5-.11.78-.22.94-.43.16-.21.19-.54.19-1.1v-11.6c0-.27-.07-.47-.18-.6-.12-.14-.28-.22-.48-.26-.18-.03-.33-.06-.43-.1-.1-.04-.16-.1-.16-.22,0-.12.06-.19.15-.23.09-.04.21-.06.32-.09.98-.28,1.56-.54,1.91-.72.35-.18.48-.29.55-.31.07,0,.11.02.14.07.03.05.04.13.04.25v14.18Z"/>
    <path class="cls-3" d="m116.4,34.29h0c-.38-4.16-2.02-8.77-4.42-12.93-2.39-4.17-5.54-7.89-8.92-10.29-3.28,2.32-6.45,6.1-8.88,10.31-2.44,4.21-4.15,8.87-4.52,12.96,3.68,1.7,8.65,2.48,13.55,2.44,4.9-.04,9.75-.9,13.19-2.49"/>
    <path class="cls-5" d="m103.05,6.4h0c-4.85,3.44-8.93,7.89-11.95,13.04-3.01,5.15-4.96,11.01-5.52,17.26l4.21-2.44c.76-4.6,2.36-8.93,4.62-12.81s5.2-7.33,8.64-10.18v-4.87Z"/>
    <path class="cls-9" d="m116.35,34.26h0c-4.19,1.56-8.64,2.38-13.14,2.4-4.5.02-9.04-.76-13.41-2.4l-4.21,2.43c5.7,2.64,11.74,3.88,17.71,3.84,5.97-.04,11.87-1.35,17.27-3.84l-4.21-2.44Z"/>
    <path class="cls-10" d="m103.05,6.4v4.87c3.46,2.85,6.41,6.3,8.67,10.18,2.27,3.88,3.86,8.21,4.62,12.81l4.21,2.44c-.57-6.25-2.51-12.11-5.53-17.26-3.02-5.15-7.11-9.6-11.98-13.04"/>
    <path class="cls-9" d="m96.48,32.81h13.18v1.77h-13.18v-1.77Zm6.87-15.22h.64s.03-.2-.01-.43c-.04-.23-.17-.49-.49-.61-.07-.36-.09-.86-.11-1.34-.02-.48-.03-.94-.07-1.24-.01-.14-.05-.27-.09-.37-.05-.1-.1-.16-.16-.16h0c-.06,0-.11.07-.16.16-.05.1-.08.23-.09.37-.04.29-.06.76-.07,1.24-.02.48-.04.98-.11,1.34-.32.11-.44.37-.49.61-.05.23-.01.43-.01.43h1.22Zm.59,7.41h2.22c-.07-.11-.11-.24-.18-.35-.06-.11-.14-.22-.28-.28-.09-.05-.24-.06-.36-.06s-.23.01-.23.01c-.05-.52,0-.81-.09-.95-.08-.15-.3-.16-.87-.14v-2.86c.57-.23.78-.68.74-1.1-.04-.42-.35-.81-.83-.9-.02-.02-.04-.1-.05-.18-.01-.07-.02-.14-.04-.14h-1.84s-.03.07-.04.14c-.01.07-.02.15-.05.18-.48.09-.78.48-.83.9-.05.42.17.88.74,1.1v2.86c-.57-.02-.78-.01-.87.14-.08.15-.04.43-.08.95,0,0-.1-.01-.23-.01s-.27.01-.36.06c-.14.07-.22.17-.28.28-.06.11-.11.24-.18.35h3.97Zm-4.42.41h0c-.66.5-1.17,1.01-1.62,1.85-.45.84-.83,2.01-1.24,3.83.25.09.42.23.53.41s.15.41.15.68h2.23c-.05-.18-.01-.41.07-.6.08-.19.22-.35.38-.4,0-.86.19-2.01.47-3.09.28-1.08.64-2.09.98-2.68h-1.95Zm7.09,0h-1.95c.34.59.7,1.6.98,2.68.28,1.08.47,2.23.47,3.09.16.04.29.2.38.4.09.19.12.42.07.6h2.22c0-.27.04-.5.15-.68.11-.18.28-.32.53-.41-.41-1.82-.79-2.99-1.24-3.83-.45-.84-.96-1.35-1.62-1.85m-3.22,6.77h1.29c0-.35.1-.6.25-.77.15-.17.34-.25.52-.27.05-.61.02-1.44-.16-2.42s-.54-2.1-1.15-3.31h-2.16c-.61,1.2-.97,2.33-1.15,3.31s-.21,1.8-.16,2.42c.18.02.37.11.52.27.15.17.25.42.25.77h1.97Z"/>
  </g>
</svg>